HIERARCHY
ROOT Hips
{
    OFFSET 0.000000 0.000000 0.000000
    CHANNELS 6 Xposition Yposition Zposition Zrotation Xrotation Yrotation
    JOINT Spine
    {
        OFFSET -0.000000 7.236184 0.000000
        CHANNELS 3 Zrotation Xrotation Yrotation
        JOINT Spine1
        {
            OFFSET -0.000000 20.420147 0.000000
            CHANNELS 3 Zrotation Xrotation Yrotation
            JOINT Neck
            {
                OFFSET -0.000000 20.336288 1.848754
                CHANNELS 3 Zrotation Xrotation Yrotation
                JOINT Head
                {
                    OFFSET -0.000000 12.354461 -1.764923
                    CHANNELS 3 Zrotation Xrotation Yrotation
                    End Site
                    {
                        OFFSET -0.000000 22.061537 0.000000
                    }
                }
            }
            JOINT LeftShoulder
            {
                OFFSET 3.573296 18.396038 -0.314103
                CHANNELS 3 Zrotation Xrotation Yrotation
                JOINT LeftArm
                {
                    OFFSET 10.880760 0.000000 0.000000
                    CHANNELS 3 Zrotation Xrotation Yrotation
                    JOINT LeftForeArm
                    {
                        OFFSET 27.185530 0.000000 0.000000
                        CHANNELS 3 Zrotation Xrotation Yrotation
                        JOINT LeftHand
                        {
                            OFFSET 27.825975 0.000000 0.000000
                            CHANNELS 3 Zrotation Xrotation Yrotation
                            End Site
                            {
                                OFFSET 13.236923 0.000000 0.000000
                            }
                        }
                    }
                }
            }
            JOINT RightShoulder
            {
                OFFSET -3.474926 18.396038 -0.314103
                CHANNELS 3 Zrotation Xrotation Yrotation
                JOINT RightArm
                {
                    OFFSET -10.880760 0.000000 0.000000
                    CHANNELS 3 Zrotation Xrotation Yrotation
                    JOINT RightForeArm
                    {
                        OFFSET -27.185530 0.000000 0.000000
                        CHANNELS 3 Zrotation Xrotation Yrotation
                        JOINT RightHand
                        {
                            OFFSET -27.825975 0.000000 0.000000
                            CHANNELS 3 Zrotation Xrotation Yrotation
                            End Site
                            {
                                OFFSET -13.236923 0.000000 0.000000
                            }
                        }
                    }
                }
            }
        }
    }
    JOINT LeftUpLeg
    {
        OFFSET 8.824615 0.000000 0.000000
        CHANNELS 3 Zrotation Xrotation Yrotation
        JOINT LeftLeg
        {
            OFFSET -0.000000 -35.111282 0.000000
            CHANNELS 3 Zrotation Xrotation Yrotation
            JOINT LeftFoot
            {
                OFFSET -0.000000 -42.324711 0.000000
                CHANNELS 3 Zrotation Xrotation Yrotation
                JOINT LeftToeBase
                {
                    OFFSET -0.000000 -5.735999 13.236923
                    CHANNELS 3 Zrotation Xrotation Yrotation
                    End Site
                    {
                        OFFSET -0.000000 0.000000 3.529846
                    }
                }
            }
        }
    }
    JOINT RightUpLeg
    {
        OFFSET -8.824615 0.000000 0.000000
        CHANNELS 3 Zrotation Xrotation Yrotation
        JOINT RightLeg
        {
            OFFSET -0.000000 -35.111282 0.000000
            CHANNELS 3 Zrotation Xrotation Yrotation
            JOINT RightFoot
            {
                OFFSET -0.000000 -42.324711 0.000000
                CHANNELS 3 Zrotation Xrotation Yrotation
                JOINT RightToeBase
                {
                    OFFSET -0.000000 -5.735999 13.236923
                    CHANNELS 3 Zrotation Xrotation Yrotation
                    End Site
                    {
                        OFFSET -0.000000 0.000000 3.529846
                    }
                }
            }
        }
    }
}
MOTION
Frames:    8
Frame Time:    0.008333
-6.541045    82.812103    101.611198    0.156955    -7.150754    -171.845779    -2.476357    -8.901134    1.574749    1.774116    0.366700    1.761893    2.064247    12.458718    -2.352342    5.918571    -0.496119    -1.650922    19.729136    -4.654756    -2.863737    -9.518740    -9.834212    -11.035479    23.548449    -7.114880    -12.679691    4.196560    -4.751198    -7.564947    -13.338942    3.693210    -6.020138    8.800021    -19.668274    4.504052    -37.759209    -17.110704    50.202141    -28.710033    0.156345    3.865807    5.172793    -14.283931    -0.725715    1.029955    22.522131    4.233308    -11.217370    -11.404330    -15.022738    0.287320    -3.255388    -0.320414    -10.607014    -7.078740    -7.221811    3.228169    18.222250    1.214439    6.834514    -7.605941    -11.066771    -1.610024    -5.010279    1.753907    
-6.416758    82.663300    101.591637    0.032029    -7.023458    -172.541672    -2.763197    -8.928489    1.251373    1.760200    0.416436    1.460824    2.348072    12.715050    -1.718941    5.893807    -0.264237    -1.011236    19.232836    -4.814822    -3.065742    -9.457617    -11.558743    -12.175116    25.150530    -10.555703    -14.700454    5.526079    -7.616732    -6.654882    -12.075347    4.262484    -6.207897    9.579358    -20.283606    4.384701    -37.889420    -17.247595    50.936234    -31.273302    0.278594    3.966428    5.254662    -14.284208    -0.624448    0.919509    23.081795    4.612112    -11.184691    -11.805496    -14.837319    0.275834    -3.176751    -0.307559    -10.566733    -7.306711    -7.023784    3.137257    18.646603    1.620014    6.431279    -8.123444    -11.122078    -1.611243    -4.801653    1.754686    
-6.285004    82.515396    101.572594    -0.090432    -6.894329    -173.230774    -3.046391    -8.951097    0.920486    1.724383    0.482281    1.151793    2.628955    12.886062    -1.083154    5.879572    0.042681    -0.371987    18.677515    -4.927261    -3.286588    -9.549674    -13.277222    -13.407134    26.598963    -14.380366    -17.005972    6.901070    -10.743813    -5.382342    -10.797549    4.839921    -6.436069    10.462562    -20.946657    4.297389    -37.958988    -17.405750    51.740177    -33.730579    0.375410    4.075458    5.354009    -14.289879    -0.517235    0.786154    23.646145    5.017160    -11.167899    -12.171600    -14.679648    0.264063    -3.110802    -0.294397    -10.510936    -7.533368    -6.832171    3.033041    19.069683    2.025287    6.031651    -8.635477    -11.189918    -1.617481    -4.576016    1.760886    
-6.148203    82.373901    101.554131    -0.205751    -6.765543    -173.901306    -3.317355    -8.966889    0.587376    1.669409    0.561282    0.839432    2.897558    12.967100    -0.455711    5.877159    0.416098    0.255868    18.090654    -4.995097    -3.532907    -9.809700    -14.932860    -14.688882    27.808649    -18.425638    -19.565233    8.259998    -13.990451    -3.791207    -9.549571    5.413909    -6.699107    11.443416    -21.615608    4.244269    -37.970337    -17.566120    52.586708    -36.016655    0.456306    4.196508    5.471222    -14.294133    -0.396497    0.636768    24.193142    5.439207    -11.168115    -12.490582    -14.559136    0.250505    -3.061516    -0.279256    -10.437966    -7.753087    -6.645672    2.917301    19.479177    2.422001    5.648158    -9.123182    -11.266846    -1.627721    -4.343327    1.771420    
-6.003321    82.237984    101.535843    -0.315028    -6.636355    -174.571655    -3.580604    -8.977921    0.242331    1.597028    0.653191    0.514605    3.156288    12.964888    0.180803    5.886576    0.857104    0.889560    17.474749    -5.019920    -3.818570    -10.256557    -16.547829    -16.035400    28.748091    -22.648262    -22.452927    9.607323    -17.318716    -1.906684    -8.318847    6.002574    -6.999914    12.553950    -22.275049    4.226032    -37.930538    -17.718803    53.474419    -38.176598    0.527384    4.342387    5.608967    -14.292950    -0.250386    0.474332    24.725246    5.882602    -11.184920    -12.766568    -14.474015    0.234118    -3.027927    -0.260972    -10.345358    -7.973680    -6.454392    2.788132    19.882826    2.819341    5.276029    -9.589534    -11.352046    -1.641276    -4.105515    1.785543    
-5.854686    82.113808    101.517868    -0.412647    -6.510304    -175.224609    -3.825178    -8.983467    -0.106833    1.510929    0.753535    0.184074    3.397093    12.885146    0.811285    5.904479    1.344007    1.513380    16.860785    -5.014287    -4.152204    -10.878573    -18.049595    -17.376789    29.350670    -26.760986    -25.596527    10.903040    -20.502451    0.115651    -7.153823    6.589335    -7.326060    13.767596    -22.868298    4.244109    -37.851215    -17.851044    54.354794    -40.137707    0.587163    4.515356    5.763633    -14.279677    -0.075861    0.311029    25.217005    6.326447    -11.216869    -12.988502    -14.424562    0.216170    -3.010512    -0.240957    -10.234061    -8.188255    -6.256955    2.651071    20.266977    3.204288    4.930814    -10.013124    -11.439646    -1.656716    -3.877164    1.801733    
-5.700116    82.000648    101.499832    -0.499602    -6.386886    -175.874985    -4.053859    -8.985880    -0.469391    1.409564    0.863323    -0.161311    3.628565    12.735335    1.451174    5.924566    1.875090    2.142481    16.252260    -4.964020    -4.539301    -11.689925    -19.478670    -18.737204    29.606525    -30.669043    -29.056099    12.176348    -23.469522    2.188721    -6.037527    7.185532    -7.677687    15.103917    -23.368549    4.297588    -37.743294    -17.959967    55.214314    -41.938362    0.632002    4.725255    5.935417    -14.251081    0.132692    0.151028    25.670607    6.771462    -11.263328    -13.159657    -14.403752    0.198440    -3.005932    -0.221192    -10.103271    -8.403062    -6.044367    2.506443    20.638783    3.581850    4.610579    -10.396302    -11.525829    -1.673215    -3.661353    1.819099    
-5.542685    81.901924    101.482117    -0.572449    -6.270367    -176.513229    -4.259719    -8.987271    -0.842532    1.293801    0.979974    -0.518613    3.852793    12.524430    2.093409    5.938409    2.433369    2.769003    15.670453    -4.865841    -4.977331    -12.670504    -20.813091    -20.083118    29.518051    -34.169968    -32.763908    13.419246    -26.065083    4.168021    -4.991766    7.779150    -8.043556    16.532822    -23.727873    4.383072    -37.621666    -18.042097    56.009155    -43.546486    0.655432    4.969883    6.119971    -14.206143    0.371938    0.003514    26.072691    7.203119    -11.322541    -13.275556    -14.405439    0.183105    -3.012245    -0.204101    -9.955371    -8.616392    -5.815088    2.360326    20.991037    3.942089    4.326069    -10.726793    -11.603573    -1.689398    -3.468384    1.836176    
